<svg width="18" height="17" viewBox="0 0 18 17" fill="none" xmlns="http://www.w3.org/2000/svg">
<path d="M16.3954 5.15521L10.372 0.538546C9.44202 -0.17812 7.93835 -0.17812 7.01702 0.530213L0.993637 5.15521C0.31568 5.67188 -0.118908 6.76355 0.0288521 7.58021L1.18486 14.2135C1.39346 15.3969 2.57554 16.3552 3.82715 16.3552H13.5619C14.8048 16.3552 15.9956 15.3885 16.2042 14.2135L17.3602 7.58021C17.4993 6.76355 17.0647 5.67188 16.3954 5.15521ZM8.69453 11.0969C7.49507 11.0969 6.52159 10.1635 6.52159 9.01355C6.52159 7.86355 7.49507 6.93021 8.69453 6.93021C9.89399 6.93021 10.8675 7.86355 10.8675 9.01355C10.8675 10.1635 9.89399 11.0969 8.69453 11.0969Z" fill="#C6C6C6"/>
</svg>
