<svg width="397" height="380" viewBox="0 0 397 380" fill="none" xmlns="http://www.w3.org/2000/svg">
    <path d="M352.916 224.58C359.332 220.16 380.5 220.5 384.999 224.58C389.498 228.66 407.498 235.274 384.999 256.663C362.5 278.052 288.749 331.524 288.749 331.524L213.889 374.302C213.889 374.302 200 380 193.5 380C187 380 171.11 374.302 171.11 374.302C170.897 374.217 94.4891 343.998 85.5557 342.219C76.6118 340.438 65.835 341.438 64.167 342.219C62.6506 342.93 10.7686 368.909 1.43164 373.585C0.766756 373.918 0 373.426 0 372.683V246.639C0 246.234 0.227164 245.876 0.602539 245.724C6.0113 243.533 46.6652 227.365 74.8613 224.58C91.4859 222.938 101.025 222.831 117.639 224.58C167.825 229.863 220.5 266 235.277 278.053C250.054 290.105 240.666 310.771 224.583 310.136C208.5 309.5 155.555 290.494 139.027 288.747C122.5 287 115.5 288.747 128.333 299.441C141.166 310.136 203.194 331.524 213.889 331.524C224.583 331.524 235.277 331.524 245.972 320.83C256.666 310.136 252.332 281.106 256.666 278.053C261 275 346.5 229 352.916 224.58ZM212.89 0C213.442 0 213.89 0.447715 213.89 1V190.283C213.89 191.144 212.874 191.603 212.229 191.033L188.507 170.103C188.324 169.941 188.088 169.853 187.845 169.853H86.5566C86.0044 169.852 85.5566 169.405 85.5566 168.853V1C85.5566 0.447751 86.0044 5.76884e-05 86.5566 0H212.89ZM341.222 0C341.774 3.29521e-05 342.222 0.447736 342.222 1V168.853C342.222 169.405 341.774 169.853 341.222 169.853H257.098C256.823 169.853 256.559 169.966 256.37 170.166L237.005 190.671C236.384 191.329 235.277 190.889 235.277 189.984V1C235.277 0.447741 235.725 4.12301e-05 236.277 0H341.222Z" fill="white"/>
</svg>
