<svg width="440" height="440" viewBox="0 0 440 440" fill="none" xmlns="http://www.w3.org/2000/svg">
<rect width="440" height="440" fill="#131010"/>
<path opacity="0.2" d="M220 220.5C265.105 220.5 305.914 230.746 335.431 247.285C364.963 263.833 383.09 286.616 383.09 311.667C383.09 336.718 364.963 359.501 335.431 376.049C305.914 392.588 265.105 402.833 220 402.833C174.895 402.833 134.086 392.588 104.569 376.049C75.0372 359.501 56.9103 336.718 56.9102 311.667C56.9102 286.616 75.0371 263.833 104.569 247.285C134.086 230.746 174.895 220.5 220 220.5Z" fill="#5D5A88" stroke="white"/>
<path opacity="0.2" d="M219.294 232.192C254.606 232.192 286.6 240.099 309.784 252.907C332.949 265.706 347.423 283.468 347.423 303.205C347.423 322.942 332.949 340.704 309.784 353.503C286.6 366.311 254.606 374.218 219.294 374.218C183.983 374.218 151.989 366.311 128.806 353.503C105.64 340.704 91.1665 322.942 91.1665 303.205C91.1666 283.468 105.64 265.706 128.806 252.907C151.989 240.099 183.983 232.192 219.294 232.192Z" fill="#5D5A88" stroke="white"/>
<path d="M220.678 174.848C221.718 174.822 222.767 174.796 223.842 174.77C230.802 174.727 237.191 175.411 243.484 178.584C246.408 179.219 253.008 181.859 258.287 183.179C264.571 184.75 262.247 183.839 266.207 185.819C269.96 189.104 277.224 191.504 280.726 195.058C282.035 196.376 284.276 197.04 285.585 198.358C288.646 199.678 287.326 199.018 290.626 199.678C293.266 200.998 300.525 204.958 293.266 201.658C293.864 202.273 297.261 202.345 297.885 202.978C301.185 204.298 300.182 203.927 303.572 205.618C307.299 205.921 299.012 208.976 302.505 207.598C305.028 206.133 301.171 208.218 303.572 205.618C304.144 204.473 311.745 207.598 312.405 208.258C312.405 208.258 311.373 220.763 311.963 221.058C312.197 223.485 312.197 223.485 312.214 226.779C312.231 228.001 312.24 229.232 312.249 230.498C312.249 231.833 312.257 233.176 312.257 234.554C312.266 236.609 312.266 236.609 312.275 238.698C312.283 241.602 312.283 244.505 312.283 247.409C312.283 251.119 312.309 254.829 312.335 258.531C312.361 262.085 312.361 265.63 312.361 269.175C312.379 270.501 312.387 271.828 312.405 273.188C312.361 283.495 312.361 283.495 310.342 287.69C306.034 294.035 299.368 297.173 292.841 300.866C291.844 301.429 290.847 302.002 289.815 302.591C287.778 303.753 285.733 304.914 283.687 306.076C280.246 308.035 276.813 310.002 273.38 311.97C271.153 313.253 268.916 314.518 266.68 315.784C264.054 317.275 261.453 318.809 258.861 320.369C247.61 327.053 235.631 331.161 222.498 331.404C205.006 331.508 191.336 326.697 176.253 318.124C174.242 316.911 172.231 315.68 170.229 314.44C163.884 310.531 157.357 306.934 150.873 303.276C146.114 300.571 141.381 297.841 136.727 294.972C135.981 294.512 135.236 294.053 134.464 293.585C131.318 291.236 129.922 288.713 128.197 285.203C126.741 279.36 127.105 273.31 127.079 267.311C127.062 264.936 127.027 262.561 126.984 260.186C126.975 258.695 126.966 257.204 126.966 255.713C126.949 254.344 126.94 252.983 126.923 251.57C127.062 250.651 128.058 243.673 128.197 242.728C131.664 244.462 130.364 243.101 132.531 246.196C134.091 248.788 141.797 252.905 142.933 255.713C143.505 256.91 145.503 261.804 146.093 263.035C148.286 264.569 134.052 267.248 136.193 268.315C133.48 260.47 137.689 252.775 132.531 246.196C131.777 245.78 131.014 245.364 130.234 244.93C129.567 244.202 128.891 243.474 128.197 242.728C127.547 239.166 127.634 235.664 127.712 232.058C127.703 231.087 127.694 230.125 127.686 229.128C127.72 224.889 127.972 221.63 129.532 217.66C134.204 211.826 140.671 208.446 147.102 204.866C148.732 203.947 150.353 203.028 151.974 202.118C152.789 201.659 153.595 201.199 154.436 200.731C157.305 199.11 160.148 197.455 162.991 195.79C198.531 175.021 198.531 175.021 220.678 174.848Z" fill="#FEFEFE"/>
<path d="M272.449 186.918C290.448 191.104 313.076 206.376 313.076 206.376L308.529 215.283L265.949 195.733C265.949 195.733 254.449 182.732 272.449 186.918Z" fill="white"/>
<path d="M165.892 290.753C173.152 288.113 156.441 281.051 154.733 282.09C153.026 283.128 153.021 289.817 153.85 292.024C154.679 294.23 157.312 298.673 163.997 296.695C170.681 294.716 158.632 293.393 165.892 290.753Z" fill="#1C1C1C" stroke="black"/>
<path d="M214.878 63.819C214.344 58.0185 214.344 58.0185 214.247 53.2387C214.813 48.0266 215.794 45.7172 217.093 42.9915C221.329 36.3325 228.645 40.8169 234.068 44.2745C241.541 49.9934 249.005 58.671 256.605 68.931C257.762 70.4847 258.922 71.9835 260.08 73.4642C269.376 85.7462 278.812 102.989 287.731 124.035C288.258 125.234 288.779 126.415 289.323 127.632C292.993 136.192 296.359 146.364 299.224 158.759C300.568 167.608 300.096 166.435 300.587 173.936C300.164 179.416 299.951 182.875 298.714 185.817C294.341 192.792 286.794 189.085 281.138 185.639C262.198 170.933 243.104 141.772 224.543 99.2202C224.127 98.1437 223.298 96.7708 222.869 95.6584C222.734 94.4594 222.082 93.5995 221.943 92.3642C222.26 92.3496 221.636 92.3783 221.943 92.3642C220.681 88.1675 220.681 88.1675 219.191 82.6848C218.698 80.8814 218.206 79.078 217.698 77.2205C215.661 69.6264 215.661 69.6264 214.878 63.819Z" fill="#FDFEFD"/>
<path d="M132.001 97.6183C131.864 93.9616 131.864 93.9616 131.997 90.9597C132.623 87.7084 133.423 86.2917 134.468 84.6244C137.783 80.5859 142.832 83.6399 146.569 85.9874C151.678 89.821 156.656 95.5105 161.663 102.197C162.426 103.21 163.193 104.189 163.96 105.156C170.096 113.167 176.123 124.294 181.618 137.792C181.945 138.561 182.268 139.319 182.606 140.101C184.872 145.592 186.753 151.734 188.28 159.604C188.868 165.2 188.868 165.2 188.902 169.922C188.367 173.346 187.878 175.108 186.868 176.913C183.441 181.146 178.194 178.572 174.29 176.224C161.351 166.375 148.913 147.453 137.423 120.146C137.171 119.457 136.919 118.768 136.659 118.056C136.398 117.344 136.193 116.522 136.193 115.862C136.583 117.842 136.079 115.761 135.852 115.759C135.126 113.085 135.126 113.085 134.291 109.596C134.014 108.448 133.738 107.301 133.453 106.119C132.316 101.287 132.316 101.287 132.001 97.6183Z" fill="#FDFEFD"/>
<path d="M139.428 267.021C145.224 269.695 153.821 260.974 158.631 247.542C159.635 244.738 160.394 241.951 160.915 239.271C128.537 242.134 172.294 232.653 156.845 218.379C151.049 215.705 142.452 224.426 137.642 237.858C132.833 251.29 133.632 264.347 139.428 267.021Z" fill="#1C1C1C"/>
<path d="M203.977 294.491C209.773 297.165 218.37 288.444 223.18 275.012C224.184 272.208 224.943 269.421 225.464 266.741C193.086 269.604 236.843 260.122 221.394 245.849C215.599 243.175 207.001 251.896 202.192 265.328C197.382 278.76 198.182 291.817 203.977 294.491Z" fill="#1C1C1C"/>
</svg>
