<svg width="27" height="29" viewBox="0 0 27 29" fill="none" xmlns="http://www.w3.org/2000/svg">
<path fill-rule="evenodd" clip-rule="evenodd" d="M4.52992 4.41474C5.14015 3.87022 5.91083 3.625 6.75 3.625H20.25C21.0547 3.625 21.8219 3.85133 22.4394 4.38396C23.0585 4.91793 23.4465 5.69021 23.6089 6.62045L25.2944 15.2196C25.3064 15.2809 25.3125 15.3435 25.3125 15.4062V21.75L25.3125 21.7526C25.3099 22.7125 24.9537 23.6322 24.3218 24.311C23.6899 24.9897 22.8336 25.3722 21.94 25.375L21.9375 25.375H5.0625L5.06005 25.375C4.16639 25.3722 3.31008 24.9897 2.67817 24.311C2.04625 23.6322 1.6901 22.7125 1.6875 21.7526L1.6875 21.75V15.4062C1.6875 15.3435 1.69357 15.2809 1.7056 15.2196L3.39165 6.61756C3.55274 5.7257 3.92204 4.95715 4.52992 4.41474ZM5.60826 5.8089C5.36106 6.02947 5.15069 6.39069 5.04732 6.96802C5.04639 6.97321 5.04542 6.9784 5.0444 6.98357L3.375 15.5006V21.7486C3.37659 22.2291 3.55502 22.6895 3.87141 23.0293C4.18782 23.3692 4.6165 23.5608 5.06394 23.5625H21.9361C22.3835 23.5608 22.8122 23.3692 23.1286 23.0293C23.445 22.6895 23.6234 22.229 23.625 21.7484V15.5006L21.9556 6.98357C21.9542 6.97636 21.9529 6.96914 21.9516 6.96189C21.8492 6.36793 21.6313 6.01153 21.3828 5.79719C21.1302 5.57933 20.7636 5.4375 20.25 5.4375H6.75C6.21808 5.4375 5.85497 5.58876 5.60826 5.8089Z" fill="white"/>
<path fill-rule="evenodd" clip-rule="evenodd" d="M1.6875 15.4062C1.6875 14.9057 2.06526 14.5 2.53125 14.5H10.125C10.591 14.5 10.9688 14.9057 10.9688 15.4062C10.9688 15.9068 10.591 16.3125 10.125 16.3125H2.53125C2.06526 16.3125 1.6875 15.9068 1.6875 15.4062Z" fill="white"/>
<path fill-rule="evenodd" clip-rule="evenodd" d="M16.0312 15.4062C16.0312 14.9057 16.409 14.5 16.875 14.5H24.4688C24.9347 14.5 25.3125 14.9057 25.3125 15.4062C25.3125 15.9068 24.9347 16.3125 24.4688 16.3125H16.875C16.409 16.3125 16.0312 15.9068 16.0312 15.4062Z" fill="white"/>
<path fill-rule="evenodd" clip-rule="evenodd" d="M10.125 14.5C10.591 14.5 10.9688 14.9057 10.9688 15.4062C10.9688 16.1273 11.2354 16.8188 11.7101 17.3287C12.1848 17.8386 12.8287 18.125 13.5 18.125C14.1713 18.125 14.8152 17.8386 15.2899 17.3287C15.7646 16.8188 16.0312 16.1273 16.0312 15.4062C16.0312 14.9057 16.409 14.5 16.875 14.5C17.341 14.5 17.7188 14.9057 17.7188 15.4062C17.7188 16.608 17.2743 17.7606 16.4831 18.6103C15.6919 19.4601 14.6189 19.9375 13.5 19.9375C12.3811 19.9375 11.3081 19.4601 10.5169 18.6103C9.72572 17.7606 9.28125 16.608 9.28125 15.4062C9.28125 14.9057 9.65901 14.5 10.125 14.5Z" fill="white"/>
<path fill-rule="evenodd" clip-rule="evenodd" d="M6.75 8.15625C6.75 7.65574 7.12776 7.25 7.59375 7.25H19.4062C19.8722 7.25 20.25 7.65574 20.25 8.15625C20.25 8.65676 19.8722 9.0625 19.4062 9.0625H7.59375C7.12776 9.0625 6.75 8.65676 6.75 8.15625Z" fill="white"/>
<path fill-rule="evenodd" clip-rule="evenodd" d="M5.90625 11.7812C5.90625 11.2807 6.28401 10.875 6.75 10.875H20.25C20.716 10.875 21.0938 11.2807 21.0938 11.7812C21.0938 12.2818 20.716 12.6875 20.25 12.6875H6.75C6.28401 12.6875 5.90625 12.2818 5.90625 11.7812Z" fill="white"/>
</svg>
