<svg width="27" height="25" viewBox="0 0 27 25" fill="none" xmlns="http://www.w3.org/2000/svg">
<path d="M25.4615 7.88008L16.1074 0.823203C14.6631 -0.272269 12.328 -0.272269 10.8972 0.810465L1.54308 7.88008C0.490239 8.66983 -0.184659 10.3385 0.0448061 11.5868L1.84003 21.7263C2.16399 23.5351 3.99971 25 5.94342 25H21.0611C22.9913 25 24.8406 23.5224 25.1645 21.7263L26.9597 11.5868C27.1757 10.3385 26.5008 8.66983 25.4615 7.88008ZM13.5023 16.9623C11.6396 16.9623 10.1278 15.5356 10.1278 13.7778C10.1278 12.0199 11.6396 10.5933 13.5023 10.5933C15.365 10.5933 16.8768 12.0199 16.8768 13.7778C16.8768 15.5356 15.365 16.9623 13.5023 16.9623Z" fill="white"/>
</svg>
