<svg width="35" height="33" viewBox="0 0 35 33" fill="none" xmlns="http://www.w3.org/2000/svg">
<path d="M17.663 15.9785C17.6194 15.9785 17.5904 15.9785 17.5468 15.9785C17.4742 15.9647 17.3725 15.9647 17.2853 15.9785C13.0728 15.8547 9.8916 12.7197 9.8916 8.85598C9.8916 4.92348 13.2762 1.71973 17.4306 1.71973C21.5851 1.71973 24.9696 4.92348 24.9696 8.85598C24.9551 12.7197 21.7594 15.8547 17.7066 15.9785C17.6921 15.9785 17.6776 15.9785 17.663 15.9785ZM17.4306 3.78223C14.4818 3.78223 12.0705 6.06473 12.0705 8.85598C12.0705 11.606 14.3366 13.8197 17.2272 13.916C17.2999 13.9022 17.5032 13.9022 17.6921 13.916C20.5392 13.7922 22.7762 11.5785 22.7907 8.85598C22.7907 6.06473 20.3794 3.78223 17.4306 3.78223Z" fill="white"/>
<path d="M17.6774 31.0053C14.8303 31.0053 11.9686 30.3178 9.80425 28.9428C7.78513 27.6778 6.68115 25.9453 6.68115 24.0615C6.68115 22.1778 7.78513 20.4315 9.80425 19.1528C14.1621 16.4165 21.2217 16.4165 25.5505 19.1528C27.5551 20.4178 28.6736 22.1503 28.6736 24.034C28.6736 25.9178 27.5696 27.664 25.5505 28.9428C23.3716 30.3178 20.5245 31.0053 17.6774 31.0053ZM11.0099 20.8853C9.61541 21.7653 8.86006 22.8928 8.86006 24.0753C8.86006 25.244 9.62994 26.3715 11.0099 27.2378C14.6269 29.534 20.7278 29.534 24.3448 27.2378C25.7393 26.3578 26.4947 25.2303 26.4947 24.0478C26.4947 22.879 25.7248 21.7515 24.3448 20.8853C20.7278 18.6028 14.6269 18.6028 11.0099 20.8853Z" fill="white"/>
</svg>
