<svg width="15" height="14" viewBox="0 0 15 14" fill="none" xmlns="http://www.w3.org/2000/svg">
<path d="M4.08523 10.1236L5.34294 9.76805L12.9156 2.25749C12.9754 2.1975 13.0086 2.11689 13.0082 2.03307C13.0078 1.94925 12.9738 1.86895 12.9135 1.80951L12.46 1.36014C12.4307 1.33063 12.3956 1.30713 12.357 1.29102C12.3183 1.27492 12.2767 1.26652 12.2347 1.26632C12.1927 1.26613 12.1511 1.27414 12.1122 1.28989C12.0734 1.30563 12.0382 1.3288 12.0086 1.35804L4.4559 8.849L4.08452 10.1229L4.08523 10.1236ZM13.3577 0.469792L13.8112 0.919866C14.4369 1.54073 14.4426 2.54237 13.8227 3.15693L6.01929 10.8971L3.33104 11.6558C3.16691 11.7009 2.99126 11.6802 2.84264 11.5985C2.69401 11.5167 2.58455 11.3805 2.53827 11.2198C2.50384 11.1042 2.50334 10.9814 2.53684 10.8656L3.3189 8.17774L11.1016 0.457893C11.2495 0.311852 11.4257 0.196151 11.6198 0.117539C11.8139 0.0389272 12.022 -0.00102258 12.232 1.98878e-05C12.442 0.00106235 12.6497 0.0430762 12.843 0.123611C13.0363 0.204146 13.2112 0.321589 13.3577 0.469092V0.469792ZM5.13083 1.27684C5.48507 1.27684 5.77218 1.56173 5.77218 1.91311C5.77274 1.99617 5.7566 2.07853 5.72466 2.15547C5.69273 2.23241 5.64563 2.30243 5.58607 2.36152C5.5265 2.42062 5.45564 2.46762 5.37752 2.49985C5.29941 2.53209 5.21558 2.54891 5.13083 2.54937H2.56541C1.85692 2.54937 1.28271 3.11914 1.28271 3.8212V11.4549C1.28271 12.1577 1.85692 12.7275 2.56541 12.7275H10.2617C10.9701 12.7275 11.5451 12.1577 11.5451 11.4549V8.9106C11.5451 8.55922 11.8322 8.27433 12.1864 8.27433C12.5407 8.27433 12.8278 8.55922 12.8278 8.9113V11.4549C12.8278 12.8605 11.6786 14 10.2617 14H2.56541C1.14844 14 0 12.8605 0 11.4549V3.8212C0 2.41638 1.14844 1.27684 2.56541 1.27684H5.13083Z" fill="white"/>
</svg>
