<svg width="18" height="13" viewBox="0 0 18 13" fill="none" xmlns="http://www.w3.org/2000/svg">
<path d="M11.5661 6.23495C10.8215 6.23495 10.1059 5.90903 9.54205 5.32096C8.99627 4.74706 8.66014 3.97832 8.60231 3.15998C8.54086 2.28851 8.81194 1.48434 9.36494 0.899816C9.91794 0.318833 10.6986 0 11.5661 0C12.4263 0 13.207 0.322375 13.76 0.903359C14.3203 1.49143 14.5913 2.29205 14.5263 3.15644C14.4648 3.97478 14.1323 4.74352 13.5865 5.31742C13.0263 5.90903 12.3107 6.23495 11.5661 6.23495ZM11.5661 1.13363C11.0239 1.13363 10.5432 1.32493 10.2143 1.6721C9.87457 2.0299 9.71915 2.51523 9.75891 3.07851C9.79867 3.63823 10.0228 4.16254 10.3914 4.54868C10.7312 4.90648 11.1504 5.10132 11.5661 5.10132C11.9854 5.10132 12.401 4.90294 12.7408 4.54868C13.1094 4.16254 13.3335 3.64178 13.3733 3.07851C13.413 2.53295 13.2504 2.03344 12.9107 1.67918C12.5817 1.32493 12.101 1.13363 11.5661 1.13363Z" fill="white"/>
<path d="M16.3301 12.4701H6.80261C6.48816 12.4701 6.19901 12.3319 6.00745 12.091C5.80866 11.8395 5.73637 11.4994 5.81589 11.1771C6.1195 9.97966 6.8749 8.98774 7.99536 8.30402C8.98932 7.69824 10.258 7.36523 11.5628 7.36523C12.8928 7.36523 14.129 7.68407 15.1302 8.28985C16.2542 8.96648 17.0096 9.96549 17.3132 11.1771C17.3928 11.4994 17.3205 11.8395 17.1217 12.091C16.9337 12.3319 16.6446 12.4701 16.3301 12.4701ZM6.97249 11.3365H16.1639C15.5675 9.24635 13.3302 8.5024 11.5664 8.5024C9.80978 8.5024 7.57609 9.24635 6.97249 11.3365Z" fill="white"/>
<path d="M4.73508 6.3762C3.46282 6.3762 2.34598 5.21778 2.24116 3.79366C2.18694 3.06388 2.41826 2.39079 2.88813 1.89483C3.35439 1.40596 4.00859 1.13672 4.73147 1.13672C5.45073 1.13672 6.10494 1.4095 6.57119 1.90192C7.04467 2.40142 7.276 3.07451 7.22178 3.7972C7.12419 5.21778 6.00373 6.3762 4.73508 6.3762ZM4.73508 2.2668C4.3375 2.2668 3.98329 2.40851 3.73751 2.66712C3.48451 2.93281 3.36523 3.29415 3.39776 3.71218C3.45921 4.54114 4.07004 5.24257 4.73508 5.24257C5.40013 5.24257 6.01458 4.54114 6.07241 3.71218C6.10132 3.30478 5.97843 2.93635 5.72904 2.67066C5.48326 2.40851 5.12905 2.2668 4.73508 2.2668Z" fill="white"/>
<path d="M4.98788 11.3359H0.928924C0.643388 11.3359 0.379538 11.2083 0.202433 10.9922C0.0217139 10.7655 -0.043345 10.4537 0.0289427 10.1633C0.278335 9.17488 0.900009 8.36008 1.82168 7.80035C2.63491 7.30794 3.66863 7.03516 4.73125 7.03516C5.64208 7.03516 6.41917 7.18394 7.1059 7.49215C7.39505 7.62323 7.52517 7.95977 7.39144 8.24318C7.25771 8.52658 6.91434 8.65412 6.62519 8.52304C6.09388 8.28569 5.47582 8.16878 4.73487 8.16878C3.41562 8.16878 1.74939 8.70726 1.22169 10.2058H4.98788C5.30594 10.2058 5.56618 10.4608 5.56618 10.7726C5.56618 11.0843 5.30594 11.3359 4.98788 11.3359Z" fill="white"/>
</svg>
