<svg width="64" height="64" viewBox="0 0 64 64" fill="none" xmlns="http://www.w3.org/2000/svg">
<path d="M48.6667 15.3333H55.3333C59.0152 15.3333 62 18.3181 62 22V42C62 45.6819 59.0152 48.6667 55.3333 48.6667H48.6667V62L35.3333 48.6667H22C20.1591 48.6667 18.4924 47.9205 17.286 46.714M17.286 46.714L28.6667 35.3333H42C45.6819 35.3333 48.6667 32.3486 48.6667 28.6667V8.66667C48.6667 4.98477 45.6819 2 42 2H8.66667C4.98477 2 2 4.98477 2 8.66667V28.6667C2 32.3486 4.98477 35.3333 8.66667 35.3333H15.3333V48.6667L17.286 46.714Z" stroke="#A442DC" stroke-width="4" stroke-linecap="round" stroke-linejoin="round"/>
</svg>
