<svg width="60" height="60" viewBox="0 0 60 60" fill="none" xmlns="http://www.w3.org/2000/svg">
<path d="M0 6.66667C0 2.98477 2.98477 0 6.66667 0H17.5975C19.0322 0 20.306 0.9181 20.7597 2.27924L25.7525 17.2574C26.277 18.8311 25.5646 20.551 24.0809 21.2929L16.5567 25.055C20.2308 33.2041 26.7959 39.7692 34.945 43.4433L38.7071 35.9191C39.449 34.4354 41.1689 33.723 42.7426 34.2475L57.7208 39.2402C59.0819 39.694 60 40.9678 60 42.4025V53.3333C60 57.0152 57.0152 60 53.3333 60H50C22.3858 60 0 37.6142 0 10V6.66667Z" fill="#A442DC"/>
</svg>
