<svg width="16" height="16" viewBox="0 0 16 16" fill="none" xmlns="http://www.w3.org/2000/svg">
<path d="M6.31252 1.54536C6.6509 0.151546 8.63316 0.151546 8.97154 1.54536C9.19012 2.44575 10.2217 2.87304 11.0129 2.39093C12.2378 1.64462 13.6394 3.04629 12.8931 4.27114C12.411 5.06237 12.8383 6.09394 13.7387 6.31252C15.1325 6.6509 15.1325 8.63316 13.7387 8.97154C12.8383 9.19012 12.411 10.2217 12.8931 11.0129C13.6394 12.2378 12.2378 13.6394 11.0129 12.8931C10.2217 12.411 9.19012 12.8383 8.97154 13.7387C8.63316 15.1325 6.6509 15.1325 6.31252 13.7387C6.09394 12.8383 5.06237 12.411 4.27114 12.8931C3.0463 13.6394 1.64462 12.2378 2.39093 11.0129C2.87304 10.2217 2.44575 9.19012 1.54536 8.97154C0.151546 8.63316 0.151546 6.6509 1.54536 6.31252C2.44575 6.09394 2.87304 5.06237 2.39093 4.27114C1.64462 3.04629 3.04629 1.64462 4.27114 2.39093C5.06237 2.87304 6.09394 2.44575 6.31252 1.54536Z" stroke="white" stroke-linecap="round" stroke-linejoin="round"/>
<path d="M10.0227 7.64203C10.0227 8.95684 8.95684 10.0227 7.64203 10.0227C6.32722 10.0227 5.26135 8.95684 5.26135 7.64203C5.26135 6.32722 6.32722 5.26135 7.64203 5.26135C8.95684 5.26135 10.0227 6.32722 10.0227 7.64203Z" stroke="white" stroke-linecap="round" stroke-linejoin="round"/>
</svg>
